<mxfile host="app.diagrams.net" modified="2022-07-24T09:43:02.762Z" agent="5.0 (Windows NT 10.0; Win64; x64) AppleWebKit/537.36 (KHTML, like Gecko) Chrome/103.0.5060.114 Safari/537.36 Edg/103.0.1264.62" etag="Qgrw3LRNS_C9wSM_Y-Ce" version="20.2.0" type="github">
  <diagram id="nXRYmx67eVYeDAkp7xSx" name="Page-1">
    <mxGraphModel dx="2297" dy="813" grid="1" gridSize="10" guides="1" tooltips="1" connect="1" arrows="1" fold="1" page="1" pageScale="1" pageWidth="850" pageHeight="1100" math="0" shadow="0">
      <root>
        <mxCell id="0" />
        <mxCell id="1" parent="0" />
        <mxCell id="EdHCRxtkoHN18u7DyxoD-1" value="users" style="rounded=0;whiteSpace=wrap;html=1;" vertex="1" parent="1">
          <mxGeometry x="360" y="520" width="120" height="60" as="geometry" />
        </mxCell>
        <mxCell id="EdHCRxtkoHN18u7DyxoD-10" style="edgeStyle=orthogonalEdgeStyle;rounded=0;orthogonalLoop=1;jettySize=auto;html=1;entryX=0.35;entryY=0.017;entryDx=0;entryDy=0;entryPerimeter=0;" edge="1" parent="1" source="EdHCRxtkoHN18u7DyxoD-2" target="EdHCRxtkoHN18u7DyxoD-1">
          <mxGeometry relative="1" as="geometry" />
        </mxCell>
        <mxCell id="EdHCRxtkoHN18u7DyxoD-2" value="fname" style="ellipse;whiteSpace=wrap;html=1;" vertex="1" parent="1">
          <mxGeometry x="360" y="390" width="110" height="40" as="geometry" />
        </mxCell>
        <mxCell id="EdHCRxtkoHN18u7DyxoD-9" style="edgeStyle=orthogonalEdgeStyle;rounded=0;orthogonalLoop=1;jettySize=auto;html=1;entryX=0;entryY=0;entryDx=0;entryDy=0;" edge="1" parent="1" source="EdHCRxtkoHN18u7DyxoD-6" target="EdHCRxtkoHN18u7DyxoD-1">
          <mxGeometry relative="1" as="geometry" />
        </mxCell>
        <mxCell id="EdHCRxtkoHN18u7DyxoD-6" value="password" style="ellipse;whiteSpace=wrap;html=1;" vertex="1" parent="1">
          <mxGeometry x="200" y="420" width="110" height="40" as="geometry" />
        </mxCell>
        <mxCell id="EdHCRxtkoHN18u7DyxoD-12" style="edgeStyle=orthogonalEdgeStyle;rounded=0;orthogonalLoop=1;jettySize=auto;html=1;entryX=1.008;entryY=0.4;entryDx=0;entryDy=0;entryPerimeter=0;" edge="1" parent="1" source="EdHCRxtkoHN18u7DyxoD-7" target="EdHCRxtkoHN18u7DyxoD-1">
          <mxGeometry relative="1" as="geometry" />
        </mxCell>
        <mxCell id="EdHCRxtkoHN18u7DyxoD-7" value="email" style="ellipse;whiteSpace=wrap;html=1;" vertex="1" parent="1">
          <mxGeometry x="550" y="500" width="110" height="40" as="geometry" />
        </mxCell>
        <mxCell id="EdHCRxtkoHN18u7DyxoD-11" style="edgeStyle=orthogonalEdgeStyle;rounded=0;orthogonalLoop=1;jettySize=auto;html=1;entryX=0.75;entryY=0;entryDx=0;entryDy=0;" edge="1" parent="1" source="EdHCRxtkoHN18u7DyxoD-8" target="EdHCRxtkoHN18u7DyxoD-1">
          <mxGeometry relative="1" as="geometry" />
        </mxCell>
        <mxCell id="EdHCRxtkoHN18u7DyxoD-8" value="lname" style="ellipse;whiteSpace=wrap;html=1;" vertex="1" parent="1">
          <mxGeometry x="490" y="430" width="110" height="40" as="geometry" />
        </mxCell>
        <mxCell id="EdHCRxtkoHN18u7DyxoD-13" value="images" style="rounded=0;whiteSpace=wrap;html=1;" vertex="1" parent="1">
          <mxGeometry x="340" y="210" width="120" height="60" as="geometry" />
        </mxCell>
        <mxCell id="EdHCRxtkoHN18u7DyxoD-81" style="edgeStyle=orthogonalEdgeStyle;rounded=0;orthogonalLoop=1;jettySize=auto;html=1;entryX=0.5;entryY=1;entryDx=0;entryDy=0;" edge="1" parent="1" source="EdHCRxtkoHN18u7DyxoD-14" target="EdHCRxtkoHN18u7DyxoD-80">
          <mxGeometry relative="1" as="geometry" />
        </mxCell>
        <mxCell id="EdHCRxtkoHN18u7DyxoD-14" value="address" style="rounded=0;whiteSpace=wrap;html=1;" vertex="1" parent="1">
          <mxGeometry x="20" y="850" width="120" height="60" as="geometry" />
        </mxCell>
        <mxCell id="EdHCRxtkoHN18u7DyxoD-36" style="edgeStyle=orthogonalEdgeStyle;rounded=0;orthogonalLoop=1;jettySize=auto;html=1;entryX=0.039;entryY=0.597;entryDx=0;entryDy=0;entryPerimeter=0;" edge="1" parent="1" source="EdHCRxtkoHN18u7DyxoD-15" target="EdHCRxtkoHN18u7DyxoD-17">
          <mxGeometry relative="1" as="geometry" />
        </mxCell>
        <mxCell id="EdHCRxtkoHN18u7DyxoD-15" value="role" style="rounded=0;whiteSpace=wrap;html=1;" vertex="1" parent="1">
          <mxGeometry x="70" y="590" width="120" height="60" as="geometry" />
        </mxCell>
        <mxCell id="EdHCRxtkoHN18u7DyxoD-35" style="edgeStyle=orthogonalEdgeStyle;rounded=0;orthogonalLoop=1;jettySize=auto;html=1;exitX=1;exitY=0.5;exitDx=0;exitDy=0;entryX=0.75;entryY=1;entryDx=0;entryDy=0;" edge="1" parent="1" source="EdHCRxtkoHN18u7DyxoD-17" target="EdHCRxtkoHN18u7DyxoD-1">
          <mxGeometry relative="1" as="geometry" />
        </mxCell>
        <mxCell id="EdHCRxtkoHN18u7DyxoD-17" value="user_role" style="rhombus;whiteSpace=wrap;html=1;" vertex="1" parent="1">
          <mxGeometry x="370" y="630" width="80" height="80" as="geometry" />
        </mxCell>
        <mxCell id="EdHCRxtkoHN18u7DyxoD-18" value="history" style="rounded=0;whiteSpace=wrap;html=1;" vertex="1" parent="1">
          <mxGeometry x="690" y="630" width="120" height="60" as="geometry" />
        </mxCell>
        <mxCell id="EdHCRxtkoHN18u7DyxoD-19" value="wallet" style="rounded=0;whiteSpace=wrap;html=1;" vertex="1" parent="1">
          <mxGeometry x="750" y="310" width="120" height="60" as="geometry" />
        </mxCell>
        <mxCell id="EdHCRxtkoHN18u7DyxoD-20" value="tickets" style="rounded=0;whiteSpace=wrap;html=1;" vertex="1" parent="1">
          <mxGeometry x="30" y="310" width="120" height="60" as="geometry" />
        </mxCell>
        <mxCell id="EdHCRxtkoHN18u7DyxoD-25" style="edgeStyle=orthogonalEdgeStyle;rounded=0;orthogonalLoop=1;jettySize=auto;html=1;entryX=0;entryY=0.5;entryDx=0;entryDy=0;" edge="1" parent="1" source="EdHCRxtkoHN18u7DyxoD-23" target="EdHCRxtkoHN18u7DyxoD-15">
          <mxGeometry relative="1" as="geometry" />
        </mxCell>
        <mxCell id="EdHCRxtkoHN18u7DyxoD-23" value="role" style="ellipse;whiteSpace=wrap;html=1;" vertex="1" parent="1">
          <mxGeometry y="510" width="110" height="40" as="geometry" />
        </mxCell>
        <mxCell id="EdHCRxtkoHN18u7DyxoD-30" style="edgeStyle=orthogonalEdgeStyle;rounded=0;orthogonalLoop=1;jettySize=auto;html=1;entryX=0;entryY=1;entryDx=0;entryDy=0;" edge="1" parent="1" source="EdHCRxtkoHN18u7DyxoD-26" target="EdHCRxtkoHN18u7DyxoD-17">
          <mxGeometry relative="1" as="geometry" />
        </mxCell>
        <mxCell id="EdHCRxtkoHN18u7DyxoD-26" value="user_id" style="ellipse;whiteSpace=wrap;html=1;" vertex="1" parent="1">
          <mxGeometry x="260" y="740" width="110" height="40" as="geometry" />
        </mxCell>
        <mxCell id="EdHCRxtkoHN18u7DyxoD-29" style="edgeStyle=orthogonalEdgeStyle;rounded=0;orthogonalLoop=1;jettySize=auto;html=1;entryX=1;entryY=1;entryDx=0;entryDy=0;" edge="1" parent="1" source="EdHCRxtkoHN18u7DyxoD-27" target="EdHCRxtkoHN18u7DyxoD-17">
          <mxGeometry relative="1" as="geometry" />
        </mxCell>
        <mxCell id="EdHCRxtkoHN18u7DyxoD-27" value="role_id" style="ellipse;whiteSpace=wrap;html=1;" vertex="1" parent="1">
          <mxGeometry x="430" y="740" width="110" height="40" as="geometry" />
        </mxCell>
        <mxCell id="EdHCRxtkoHN18u7DyxoD-45" style="edgeStyle=orthogonalEdgeStyle;rounded=0;orthogonalLoop=1;jettySize=auto;html=1;entryX=1;entryY=1;entryDx=0;entryDy=0;" edge="1" parent="1" source="EdHCRxtkoHN18u7DyxoD-38" target="EdHCRxtkoHN18u7DyxoD-18">
          <mxGeometry relative="1" as="geometry" />
        </mxCell>
        <mxCell id="EdHCRxtkoHN18u7DyxoD-38" value="user_id" style="ellipse;whiteSpace=wrap;html=1;" vertex="1" parent="1">
          <mxGeometry x="860" y="700" width="110" height="40" as="geometry" />
        </mxCell>
        <mxCell id="EdHCRxtkoHN18u7DyxoD-44" style="edgeStyle=orthogonalEdgeStyle;rounded=0;orthogonalLoop=1;jettySize=auto;html=1;" edge="1" parent="1" source="EdHCRxtkoHN18u7DyxoD-39" target="EdHCRxtkoHN18u7DyxoD-18">
          <mxGeometry relative="1" as="geometry" />
        </mxCell>
        <mxCell id="EdHCRxtkoHN18u7DyxoD-39" value="qty" style="ellipse;whiteSpace=wrap;html=1;" vertex="1" parent="1">
          <mxGeometry x="850" y="650" width="110" height="40" as="geometry" />
        </mxCell>
        <mxCell id="EdHCRxtkoHN18u7DyxoD-46" style="edgeStyle=orthogonalEdgeStyle;rounded=0;orthogonalLoop=1;jettySize=auto;html=1;entryX=0.83;entryY=1.051;entryDx=0;entryDy=0;entryPerimeter=0;" edge="1" parent="1" source="EdHCRxtkoHN18u7DyxoD-40" target="EdHCRxtkoHN18u7DyxoD-18">
          <mxGeometry relative="1" as="geometry" />
        </mxCell>
        <mxCell id="EdHCRxtkoHN18u7DyxoD-40" value="done" style="ellipse;whiteSpace=wrap;html=1;" vertex="1" parent="1">
          <mxGeometry x="850" y="760" width="110" height="40" as="geometry" />
        </mxCell>
        <mxCell id="EdHCRxtkoHN18u7DyxoD-42" style="edgeStyle=orthogonalEdgeStyle;rounded=0;orthogonalLoop=1;jettySize=auto;html=1;entryX=0.85;entryY=0.012;entryDx=0;entryDy=0;entryPerimeter=0;" edge="1" parent="1" source="EdHCRxtkoHN18u7DyxoD-41" target="EdHCRxtkoHN18u7DyxoD-18">
          <mxGeometry relative="1" as="geometry" />
        </mxCell>
        <mxCell id="EdHCRxtkoHN18u7DyxoD-41" value="cancelled" style="ellipse;whiteSpace=wrap;html=1;" vertex="1" parent="1">
          <mxGeometry x="840" y="590" width="110" height="40" as="geometry" />
        </mxCell>
        <mxCell id="EdHCRxtkoHN18u7DyxoD-49" style="edgeStyle=orthogonalEdgeStyle;rounded=0;orthogonalLoop=1;jettySize=auto;html=1;entryX=0;entryY=0;entryDx=0;entryDy=0;" edge="1" parent="1" source="EdHCRxtkoHN18u7DyxoD-47" target="EdHCRxtkoHN18u7DyxoD-13">
          <mxGeometry relative="1" as="geometry" />
        </mxCell>
        <mxCell id="EdHCRxtkoHN18u7DyxoD-47" value="image_url" style="ellipse;whiteSpace=wrap;html=1;" vertex="1" parent="1">
          <mxGeometry x="270" y="130" width="110" height="40" as="geometry" />
        </mxCell>
        <mxCell id="EdHCRxtkoHN18u7DyxoD-50" style="edgeStyle=orthogonalEdgeStyle;rounded=0;orthogonalLoop=1;jettySize=auto;html=1;entryX=0.75;entryY=0;entryDx=0;entryDy=0;" edge="1" parent="1" source="EdHCRxtkoHN18u7DyxoD-48" target="EdHCRxtkoHN18u7DyxoD-13">
          <mxGeometry relative="1" as="geometry" />
        </mxCell>
        <mxCell id="EdHCRxtkoHN18u7DyxoD-48" value="user_id" style="ellipse;whiteSpace=wrap;html=1;" vertex="1" parent="1">
          <mxGeometry x="400" y="120" width="110" height="40" as="geometry" />
        </mxCell>
        <mxCell id="EdHCRxtkoHN18u7DyxoD-55" style="edgeStyle=orthogonalEdgeStyle;rounded=0;orthogonalLoop=1;jettySize=auto;html=1;entryX=0.25;entryY=0;entryDx=0;entryDy=0;" edge="1" parent="1" source="EdHCRxtkoHN18u7DyxoD-52" target="EdHCRxtkoHN18u7DyxoD-19">
          <mxGeometry relative="1" as="geometry" />
        </mxCell>
        <mxCell id="EdHCRxtkoHN18u7DyxoD-52" value="balance" style="ellipse;whiteSpace=wrap;html=1;" vertex="1" parent="1">
          <mxGeometry x="680" y="230" width="110" height="40" as="geometry" />
        </mxCell>
        <mxCell id="EdHCRxtkoHN18u7DyxoD-54" style="edgeStyle=orthogonalEdgeStyle;rounded=0;orthogonalLoop=1;jettySize=auto;html=1;entryX=1;entryY=0.5;entryDx=0;entryDy=0;" edge="1" parent="1" source="EdHCRxtkoHN18u7DyxoD-53" target="EdHCRxtkoHN18u7DyxoD-19">
          <mxGeometry relative="1" as="geometry" />
        </mxCell>
        <mxCell id="EdHCRxtkoHN18u7DyxoD-53" value="user_id" style="ellipse;whiteSpace=wrap;html=1;" vertex="1" parent="1">
          <mxGeometry x="830" y="240" width="110" height="40" as="geometry" />
        </mxCell>
        <mxCell id="EdHCRxtkoHN18u7DyxoD-64" style="edgeStyle=orthogonalEdgeStyle;rounded=0;orthogonalLoop=1;jettySize=auto;html=1;entryX=0;entryY=0.5;entryDx=0;entryDy=0;" edge="1" parent="1" source="EdHCRxtkoHN18u7DyxoD-57" target="EdHCRxtkoHN18u7DyxoD-20">
          <mxGeometry relative="1" as="geometry" />
        </mxCell>
        <mxCell id="EdHCRxtkoHN18u7DyxoD-57" value="price" style="ellipse;whiteSpace=wrap;html=1;" vertex="1" parent="1">
          <mxGeometry x="-160" y="300" width="110" height="40" as="geometry" />
        </mxCell>
        <mxCell id="EdHCRxtkoHN18u7DyxoD-62" style="edgeStyle=orthogonalEdgeStyle;rounded=0;orthogonalLoop=1;jettySize=auto;html=1;entryX=0.5;entryY=0;entryDx=0;entryDy=0;" edge="1" parent="1" source="EdHCRxtkoHN18u7DyxoD-58" target="EdHCRxtkoHN18u7DyxoD-20">
          <mxGeometry relative="1" as="geometry" />
        </mxCell>
        <mxCell id="EdHCRxtkoHN18u7DyxoD-58" value="destination" style="ellipse;whiteSpace=wrap;html=1;" vertex="1" parent="1">
          <mxGeometry x="50" y="210" width="110" height="40" as="geometry" />
        </mxCell>
        <mxCell id="EdHCRxtkoHN18u7DyxoD-65" style="edgeStyle=orthogonalEdgeStyle;rounded=0;orthogonalLoop=1;jettySize=auto;html=1;entryX=0.25;entryY=0;entryDx=0;entryDy=0;" edge="1" parent="1" source="EdHCRxtkoHN18u7DyxoD-59" target="EdHCRxtkoHN18u7DyxoD-20">
          <mxGeometry relative="1" as="geometry" />
        </mxCell>
        <mxCell id="EdHCRxtkoHN18u7DyxoD-59" value="quantity" style="ellipse;whiteSpace=wrap;html=1;" vertex="1" parent="1">
          <mxGeometry x="-70" y="240" width="110" height="40" as="geometry" />
        </mxCell>
        <mxCell id="EdHCRxtkoHN18u7DyxoD-63" style="edgeStyle=orthogonalEdgeStyle;rounded=0;orthogonalLoop=1;jettySize=auto;html=1;entryX=1;entryY=0.5;entryDx=0;entryDy=0;" edge="1" parent="1" source="EdHCRxtkoHN18u7DyxoD-61" target="EdHCRxtkoHN18u7DyxoD-20">
          <mxGeometry relative="1" as="geometry" />
        </mxCell>
        <mxCell id="EdHCRxtkoHN18u7DyxoD-61" value="created_at" style="ellipse;whiteSpace=wrap;html=1;" vertex="1" parent="1">
          <mxGeometry x="150" y="260" width="110" height="40" as="geometry" />
        </mxCell>
        <mxCell id="EdHCRxtkoHN18u7DyxoD-79" style="edgeStyle=orthogonalEdgeStyle;rounded=0;orthogonalLoop=1;jettySize=auto;html=1;entryX=1;entryY=0.75;entryDx=0;entryDy=0;" edge="1" parent="1" source="EdHCRxtkoHN18u7DyxoD-66" target="EdHCRxtkoHN18u7DyxoD-14">
          <mxGeometry relative="1" as="geometry" />
        </mxCell>
        <mxCell id="EdHCRxtkoHN18u7DyxoD-66" value="address" style="ellipse;whiteSpace=wrap;html=1;" vertex="1" parent="1">
          <mxGeometry x="190" y="900" width="110" height="40" as="geometry" />
        </mxCell>
        <mxCell id="EdHCRxtkoHN18u7DyxoD-78" style="edgeStyle=orthogonalEdgeStyle;rounded=0;orthogonalLoop=1;jettySize=auto;html=1;entryX=0.083;entryY=1.098;entryDx=0;entryDy=0;entryPerimeter=0;" edge="1" parent="1" source="EdHCRxtkoHN18u7DyxoD-67" target="EdHCRxtkoHN18u7DyxoD-14">
          <mxGeometry relative="1" as="geometry" />
        </mxCell>
        <mxCell id="EdHCRxtkoHN18u7DyxoD-67" value="phone" style="ellipse;whiteSpace=wrap;html=1;" vertex="1" parent="1">
          <mxGeometry x="-170" y="880" width="110" height="40" as="geometry" />
        </mxCell>
        <mxCell id="EdHCRxtkoHN18u7DyxoD-77" style="edgeStyle=orthogonalEdgeStyle;rounded=0;orthogonalLoop=1;jettySize=auto;html=1;entryX=0;entryY=0.5;entryDx=0;entryDy=0;" edge="1" parent="1" source="EdHCRxtkoHN18u7DyxoD-68" target="EdHCRxtkoHN18u7DyxoD-14">
          <mxGeometry relative="1" as="geometry" />
        </mxCell>
        <mxCell id="EdHCRxtkoHN18u7DyxoD-68" value="city" style="ellipse;whiteSpace=wrap;html=1;" vertex="1" parent="1">
          <mxGeometry x="-130" y="790" width="110" height="40" as="geometry" />
        </mxCell>
        <mxCell id="EdHCRxtkoHN18u7DyxoD-73" style="edgeStyle=orthogonalEdgeStyle;rounded=0;orthogonalLoop=1;jettySize=auto;html=1;entryX=0.5;entryY=1;entryDx=0;entryDy=0;" edge="1" parent="1" source="EdHCRxtkoHN18u7DyxoD-69" target="EdHCRxtkoHN18u7DyxoD-14">
          <mxGeometry relative="1" as="geometry" />
        </mxCell>
        <mxCell id="EdHCRxtkoHN18u7DyxoD-69" value="district" style="ellipse;whiteSpace=wrap;html=1;" vertex="1" parent="1">
          <mxGeometry x="30" y="1020" width="110" height="40" as="geometry" />
        </mxCell>
        <mxCell id="EdHCRxtkoHN18u7DyxoD-76" style="edgeStyle=orthogonalEdgeStyle;rounded=0;orthogonalLoop=1;jettySize=auto;html=1;entryX=0.833;entryY=1.05;entryDx=0;entryDy=0;entryPerimeter=0;" edge="1" parent="1" source="EdHCRxtkoHN18u7DyxoD-70" target="EdHCRxtkoHN18u7DyxoD-14">
          <mxGeometry relative="1" as="geometry" />
        </mxCell>
        <mxCell id="EdHCRxtkoHN18u7DyxoD-70" value="postal_code" style="ellipse;whiteSpace=wrap;html=1;" vertex="1" parent="1">
          <mxGeometry x="170" y="950" width="110" height="40" as="geometry" />
        </mxCell>
        <mxCell id="EdHCRxtkoHN18u7DyxoD-75" style="edgeStyle=orthogonalEdgeStyle;rounded=0;orthogonalLoop=1;jettySize=auto;html=1;entryX=0.25;entryY=1;entryDx=0;entryDy=0;" edge="1" parent="1" source="EdHCRxtkoHN18u7DyxoD-71" target="EdHCRxtkoHN18u7DyxoD-14">
          <mxGeometry relative="1" as="geometry" />
        </mxCell>
        <mxCell id="EdHCRxtkoHN18u7DyxoD-71" value="user_id" style="ellipse;whiteSpace=wrap;html=1;" vertex="1" parent="1">
          <mxGeometry x="-120" y="990" width="110" height="40" as="geometry" />
        </mxCell>
        <mxCell id="EdHCRxtkoHN18u7DyxoD-82" style="edgeStyle=orthogonalEdgeStyle;rounded=0;orthogonalLoop=1;jettySize=auto;html=1;entryX=0;entryY=0.75;entryDx=0;entryDy=0;" edge="1" parent="1" source="EdHCRxtkoHN18u7DyxoD-80" target="EdHCRxtkoHN18u7DyxoD-1">
          <mxGeometry relative="1" as="geometry">
            <mxPoint x="240" y="550" as="targetPoint" />
            <Array as="points">
              <mxPoint x="120" y="710" />
              <mxPoint x="260" y="710" />
              <mxPoint x="260" y="565" />
            </Array>
          </mxGeometry>
        </mxCell>
        <mxCell id="EdHCRxtkoHN18u7DyxoD-80" value="Get" style="rhombus;whiteSpace=wrap;html=1;" vertex="1" parent="1">
          <mxGeometry x="80" y="730" width="80" height="80" as="geometry" />
        </mxCell>
        <mxCell id="EdHCRxtkoHN18u7DyxoD-85" style="edgeStyle=orthogonalEdgeStyle;rounded=0;orthogonalLoop=1;jettySize=auto;html=1;" edge="1" parent="1" source="EdHCRxtkoHN18u7DyxoD-83" target="EdHCRxtkoHN18u7DyxoD-13">
          <mxGeometry relative="1" as="geometry" />
        </mxCell>
        <mxCell id="EdHCRxtkoHN18u7DyxoD-86" style="edgeStyle=orthogonalEdgeStyle;rounded=0;orthogonalLoop=1;jettySize=auto;html=1;entryX=0.119;entryY=0.002;entryDx=0;entryDy=0;entryPerimeter=0;" edge="1" parent="1" source="EdHCRxtkoHN18u7DyxoD-83" target="EdHCRxtkoHN18u7DyxoD-1">
          <mxGeometry relative="1" as="geometry" />
        </mxCell>
        <mxCell id="EdHCRxtkoHN18u7DyxoD-83" value="Fetch" style="rhombus;whiteSpace=wrap;html=1;" vertex="1" parent="1">
          <mxGeometry x="350" y="300" width="80" height="80" as="geometry" />
        </mxCell>
        <mxCell id="EdHCRxtkoHN18u7DyxoD-89" style="edgeStyle=orthogonalEdgeStyle;rounded=0;orthogonalLoop=1;jettySize=auto;html=1;entryX=0;entryY=0.5;entryDx=0;entryDy=0;" edge="1" parent="1" source="EdHCRxtkoHN18u7DyxoD-87" target="EdHCRxtkoHN18u7DyxoD-18">
          <mxGeometry relative="1" as="geometry" />
        </mxCell>
        <mxCell id="EdHCRxtkoHN18u7DyxoD-90" style="edgeStyle=orthogonalEdgeStyle;rounded=0;orthogonalLoop=1;jettySize=auto;html=1;entryX=1;entryY=0.75;entryDx=0;entryDy=0;" edge="1" parent="1" source="EdHCRxtkoHN18u7DyxoD-87" target="EdHCRxtkoHN18u7DyxoD-1">
          <mxGeometry relative="1" as="geometry" />
        </mxCell>
        <mxCell id="EdHCRxtkoHN18u7DyxoD-87" value="Get" style="rhombus;whiteSpace=wrap;html=1;" vertex="1" parent="1">
          <mxGeometry x="560" y="630" width="80" height="80" as="geometry" />
        </mxCell>
        <mxCell id="EdHCRxtkoHN18u7DyxoD-91" style="edgeStyle=orthogonalEdgeStyle;rounded=0;orthogonalLoop=1;jettySize=auto;html=1;entryX=0;entryY=0.5;entryDx=0;entryDy=0;" edge="1" parent="1" source="EdHCRxtkoHN18u7DyxoD-88" target="EdHCRxtkoHN18u7DyxoD-19">
          <mxGeometry relative="1" as="geometry" />
        </mxCell>
        <mxCell id="EdHCRxtkoHN18u7DyxoD-92" style="edgeStyle=orthogonalEdgeStyle;rounded=0;orthogonalLoop=1;jettySize=auto;html=1;entryX=1;entryY=0.5;entryDx=0;entryDy=0;" edge="1" parent="1" source="EdHCRxtkoHN18u7DyxoD-88" target="EdHCRxtkoHN18u7DyxoD-1">
          <mxGeometry relative="1" as="geometry" />
        </mxCell>
        <mxCell id="EdHCRxtkoHN18u7DyxoD-88" value="Check" style="rhombus;whiteSpace=wrap;html=1;" vertex="1" parent="1">
          <mxGeometry x="670" y="390" width="80" height="80" as="geometry" />
        </mxCell>
      </root>
    </mxGraphModel>
  </diagram>
</mxfile>
